<?xml version="1.0" standalone="no"?>
<!DOCTYPE svg PUBLIC "-//W3C//DTD SVG 20010904//EN"
 "http://www.w3.org/TR/2001/REC-SVG-20010904/DTD/svg10.dtd">
<svg version="1.0" xmlns="http://www.w3.org/2000/svg"
 width="1280.000000pt" height="1280.000000pt" viewBox="0 0 1280.000000 1280.000000"
 preserveAspectRatio="xMidYMid meet">
<metadata>
Created by potrace 1.15, written by Peter Selinger 2001-2017
</metadata>
<g transform="translate(0.000000,1280.000000) scale(0.100000,-0.100000)"
fill="#ffffff" stroke="none">
<path d="M8705 12794 c-425 -31 -589 -60 -1160 -204 -548 -138 -738 -171
-1092 -191 -160 -9 -255 -9 -400 0 -323 19 -435 37 -958 153 -607 134 -868
170 -1250 171 -261 1 -350 -10 -522 -68 -495 -166 -866 -619 -987 -1207 -85
-411 -38 -795 148 -1210 l25 -56 -71 29 c-256 105 -505 158 -746 159 -671 1
-1277 -332 -1539 -846 -63 -123 -95 -211 -125 -345 -20 -92 -23 -129 -22 -314
1 -417 41 -672 204 -1320 138 -549 171 -738 191 -1092 9 -160 9 -255 0 -400
-19 -323 -37 -435 -153 -958 -134 -607 -170 -868 -171 -1250 -1 -261 10 -350
68 -522 166 -495 619 -866 1207 -987 411 -85 795 -38 1211 148 l57 26 -16 -38
c-117 -272 -173 -526 -174 -780 -1 -671 332 -1277 846 -1539 123 -63 211 -95
345 -125 92 -20 129 -23 314 -22 417 1 671 41 1320 204 548 138 738 171 1092
191 160 9 255 9 400 0 323 -19 453 -40 974 -156 581 -130 854 -167 1234 -168
261 -1 350 10 522 68 495 166 866 619 987 1207 85 411 38 795 -148 1210 l-25
56 71 -29 c95 -39 266 -95 351 -114 538 -123 1140 11 1556 345 266 214 430
475 503 801 20 92 23 129 22 314 -1 417 -41 672 -204 1320 -138 549 -171 738
-191 1092 -9 160 -9 255 0 400 19 324 38 441 160 993 129 586 163 836 164
1215 1 261 -10 350 -68 522 -166 495 -619 866 -1207 987 -411 85 -795 38
-1211 -148 l-57 -26 16 38 c174 406 216 778 133 1186 -101 497 -404 926 -797
1130 -210 108 -362 146 -607 150 -93 2 -192 2 -220 0z"/>
</g>
</svg>
